<svg width="600" height="423" viewBox="0 0 600 423" fill="none" xmlns="http://www.w3.org/2000/svg">
<path d="M298.62 242.563C298.62 254.426 310.709 256.493 316.754 256.043V191.336H298.62V242.563Z" fill="#0095DA"/>
<path d="M376.336 191.336H358.202V237.966H321.935V256.099H358.202V293.662C372.709 296.77 376.336 286.322 376.336 280.709V191.336Z" fill="#0095DA"/>
<path d="M68.0642 217.241V230.194H101.741V254.804C116.248 256.876 119.011 242.715 118.579 235.375C118.579 222.941 111.671 218.105 108.217 217.241H68.0642Z" fill="#0095DA"/>
<path d="M114.694 191.336V209.47H68.0642V191.336H114.694Z" fill="#0095DA"/>
<path d="M93.9694 240.556V256.099H47.3401V240.556H93.9694Z" fill="#0095DA"/>
<path d="M61.5879 228.899V192.632C48.1172 195.74 45.6131 205.584 46.0448 210.765C46.0448 223.2 56.4069 228.467 61.5879 228.899Z" fill="#0095DA"/>
<rect x="127.646" y="165.431" width="15.5431" height="90.6681" fill="#0095DA"/>
<path d="M148.37 191.336V209.47H182.047C185.933 209.47 187.228 210.765 187.228 212.924V256.099H202.771V203.479C202.771 193.765 195.863 191.336 192.409 191.336H148.37Z" fill="#0095DA"/>
<path d="M213.133 204.873C213.133 193.01 225.222 190.943 231.267 191.392V256.099H213.133V204.873Z" fill="#0095DA"/>
<path d="M279.191 191.336H236.448V209.47H267.534C272.715 209.47 272.715 209.776 272.715 211.575V222.369H237.743V239.909H272.715V256.099H288.258V203.479C288.258 193.765 282.214 191.336 279.191 191.336Z" fill="#0095DA"/>
<path d="M472.185 204.873C472.185 193.01 484.274 190.943 490.319 191.392V256.099H472.185V204.873Z" fill="#0095DA"/>
<path d="M538.243 191.336H495.5V209.47H526.586C531.767 209.47 531.767 209.776 531.767 211.575V222.369H496.795V239.909H531.767V256.099H547.31V203.479C547.31 193.765 541.265 191.336 538.243 191.336Z" fill="#0095DA"/>
<path d="M407.422 191.336V209.47H442.394C445.503 209.47 446.28 212.06 446.28 213.356V256.099H465.709V209.47C465.709 195.999 457.074 191.768 452.756 191.336H407.422Z" fill="#0095DA"/>
<rect x="384.107" y="191.336" width="18.1336" height="64.7629" fill="#0095DA"/>
<path d="M547.014 394.799C548.084 394.384 548.637 393.789 548.672 393.011H549.19C549.138 393.702 549.112 394.626 549.112 395.783C549.112 397.268 549.138 398.374 549.19 399.099H548.672C548.637 398.443 548.559 397.977 548.438 397.7C548.3 397.407 548.059 397.26 547.713 397.26C547.42 397.26 547.014 397.363 546.496 397.571L542.247 399.151V405.42L544.993 406.482C545.926 406.827 546.634 407 547.117 407C547.653 407 548.041 406.819 548.283 406.456C548.525 406.076 548.654 405.506 548.672 404.746H549.19C549.138 405.731 549.112 406.724 549.112 407.726C549.112 408.503 549.138 409.15 549.19 409.668H548.672C548.464 408.805 547.713 408.123 546.418 407.622L530.719 401.534V401.12L547.014 394.799ZM541.729 399.358L533.983 402.26L541.729 405.213V399.358ZM546.366 380.632C547.16 380.632 547.739 380.485 548.102 380.191C548.464 379.898 548.646 379.388 548.646 378.663H549.19C549.138 379.198 549.112 379.734 549.112 380.269C549.112 381.357 549.233 382.255 549.475 382.963H547.169C547.946 383.274 548.542 383.74 548.957 384.362C549.354 384.984 549.552 385.744 549.552 386.642C549.552 388.3 548.957 389.604 547.765 390.553C546.573 391.486 544.829 391.944 542.532 391.926C541.03 391.926 539.752 391.667 538.698 391.149C537.627 390.614 536.824 389.906 536.289 389.025C535.754 388.127 535.486 387.143 535.486 386.072C535.486 385.416 535.615 384.82 535.874 384.284C536.116 383.732 536.496 383.291 537.014 382.963H531.989C531.194 382.963 530.616 383.11 530.253 383.404C529.89 383.697 529.709 384.207 529.709 384.932H529.165C529.217 384.379 529.243 383.844 529.243 383.326C529.243 382.238 529.122 381.34 528.88 380.632H546.366ZM548.775 385.89C548.775 385.217 548.516 384.612 547.998 384.077C547.48 383.542 546.746 383.17 545.796 382.963H538.076C536.747 383.429 536.082 384.397 536.082 385.865C536.082 386.935 536.634 387.799 537.74 388.455C538.828 389.111 540.425 389.431 542.532 389.414C544.604 389.431 546.167 389.137 547.221 388.533C548.257 387.928 548.775 387.048 548.775 385.89ZM535.486 371.019C535.486 369.258 536.073 367.842 537.247 366.771C538.405 365.683 540.166 365.139 542.532 365.139C544.898 365.139 546.66 365.683 547.817 366.771C548.974 367.842 549.552 369.258 549.552 371.019C549.552 372.781 548.974 374.206 547.817 375.294C546.66 376.365 544.898 376.9 542.532 376.9C540.166 376.9 538.405 376.365 537.247 375.294C536.073 374.206 535.486 372.781 535.486 371.019ZM536.004 371.019C536.004 372.056 536.539 372.876 537.61 373.48C538.664 374.085 540.304 374.387 542.532 374.387C544.76 374.387 546.401 374.085 547.454 373.48C548.508 372.876 549.034 372.056 549.034 371.019C549.034 369.983 548.508 369.163 547.454 368.559C546.401 367.954 544.76 367.652 542.532 367.652C540.304 367.652 538.664 367.954 537.61 368.559C536.539 369.163 536.004 369.983 536.004 371.019ZM535.486 355.118C535.486 354.427 535.684 353.865 536.082 353.434C536.479 352.985 536.962 352.76 537.532 352.76C537.981 352.76 538.37 352.898 538.698 353.175C539.009 353.434 539.164 353.788 539.164 354.237C539.164 354.617 539.044 354.945 538.802 355.221C538.56 355.48 538.232 355.61 537.817 355.61C537.247 355.61 536.781 355.316 536.418 354.729C536.246 354.85 536.159 355.031 536.159 355.273C536.159 355.947 536.427 356.56 536.962 357.112C537.481 357.665 538.12 358.097 538.879 358.408C539.639 358.718 540.356 358.874 541.03 358.874H546.521C547.316 358.874 547.869 358.649 548.179 358.2C548.49 357.734 548.646 357.043 548.646 356.128H549.19L549.164 356.75C549.112 358.511 549.086 359.634 549.086 360.117C549.086 360.566 549.121 361.585 549.19 363.174H548.646C548.646 362.449 548.516 361.939 548.257 361.646C547.981 361.352 547.489 361.205 546.781 361.205H538.672C537.878 361.205 537.299 361.352 536.937 361.646C536.574 361.939 536.393 362.449 536.393 363.174H535.849C535.9 362.621 535.926 362.086 535.926 361.568C535.926 360.48 535.805 359.582 535.564 358.874H538.802C537.938 358.563 537.17 358.071 536.496 357.397C535.823 356.706 535.486 355.947 535.486 355.118ZM549.371 348.167C549.371 349.255 549.103 350.067 548.568 350.602C548.015 351.12 547.255 351.379 546.288 351.379C545.511 351.379 544.872 351.172 544.371 350.757C543.871 350.326 543.473 349.825 543.18 349.255C542.886 348.668 542.575 347.899 542.247 346.949C541.919 345.982 541.617 345.266 541.34 344.799C541.064 344.333 540.693 344.1 540.227 344.1H538.62C537.619 344.1 536.937 344.316 536.574 344.747C536.194 345.162 536.004 345.749 536.004 346.509C536.004 347.718 536.315 348.573 536.937 349.074C537.023 348.728 537.204 348.443 537.481 348.219C537.757 347.977 538.102 347.856 538.517 347.856C538.949 347.856 539.294 347.994 539.553 348.271C539.795 348.547 539.916 348.901 539.916 349.333C539.916 349.816 539.769 350.179 539.475 350.421C539.164 350.662 538.793 350.783 538.361 350.783C537.947 350.783 537.601 350.688 537.325 350.498C537.049 350.291 536.772 349.989 536.496 349.592C536.203 349.177 535.961 348.65 535.771 348.011C535.581 347.372 535.486 346.673 535.486 345.913C535.486 344.566 535.805 343.547 536.444 342.856C536.842 342.425 537.325 342.14 537.895 342.001C538.448 341.846 539.182 341.768 540.097 341.768H547.299C547.73 341.768 548.041 341.708 548.231 341.587C548.421 341.466 548.516 341.259 548.516 340.965C548.516 340.758 548.473 340.568 548.387 340.395C548.283 340.205 548.145 340.007 547.972 339.8L548.413 339.515C548.758 339.964 549.008 340.352 549.164 340.68C549.302 340.991 549.371 341.388 549.371 341.872C549.371 342.701 549.164 343.279 548.749 343.608C548.335 343.936 547.774 344.1 547.065 344.1C547.929 344.618 548.533 345.214 548.879 345.887C549.207 346.561 549.371 347.321 549.371 348.167ZM548.335 347.027C548.335 345.887 547.679 344.911 546.366 344.1H541.289C541.53 344.255 541.729 344.471 541.884 344.747C542.04 345.024 542.247 345.447 542.506 346.017C542.782 346.673 543.05 347.208 543.309 347.623C543.551 348.02 543.888 348.365 544.32 348.659C544.751 348.953 545.304 349.099 545.977 349.099C546.755 349.099 547.342 348.91 547.739 348.53C548.136 348.15 548.335 347.649 548.335 347.027ZM535.486 331.042C535.486 329.574 536.09 328.391 537.299 327.493C538.508 326.578 540.252 326.12 542.532 326.12C544.035 326.12 545.313 326.379 546.366 326.898C547.42 327.416 548.214 328.115 548.749 328.996C549.285 329.859 549.552 330.826 549.552 331.897C549.552 332.536 549.423 333.158 549.164 333.762C548.905 334.35 548.533 334.868 548.05 335.317L549.604 337.156L549.423 337.596C548.991 337.475 548.49 337.415 547.92 337.415H532.015C531.22 337.415 530.642 337.562 530.279 337.855C529.916 338.149 529.735 338.658 529.735 339.384H529.191C529.243 338.831 529.269 338.296 529.269 337.778C529.269 336.69 529.148 335.792 528.906 335.084H538.258C537.377 334.704 536.695 334.16 536.211 333.452C535.728 332.726 535.486 331.923 535.486 331.042ZM548.957 332.104C548.957 330.947 548.438 330.084 547.402 329.514C546.349 328.927 544.725 328.633 542.532 328.633C540.425 328.633 538.854 328.892 537.817 329.41C536.781 329.928 536.263 330.723 536.263 331.794C536.263 332.519 536.548 333.184 537.118 333.788C537.671 334.393 538.456 334.825 539.475 335.084H547.687C548.102 334.686 548.421 334.229 548.646 333.711C548.853 333.192 548.957 332.657 548.957 332.104ZM546.781 320.273C547.489 320.273 547.981 320.126 548.257 319.833C548.516 319.539 548.646 319.03 548.646 318.304H549.19C549.121 319.893 549.086 320.938 549.086 321.439C549.086 321.94 549.121 322.985 549.19 324.574H548.646C548.646 323.848 548.516 323.339 548.257 323.045C547.981 322.752 547.489 322.605 546.781 322.605H531.989C531.194 322.605 530.616 322.752 530.253 323.045C529.89 323.339 529.709 323.848 529.709 324.574H529.165C529.217 324.038 529.243 323.503 529.243 322.967C529.243 321.879 529.122 320.981 528.88 320.273H546.781ZM546.081 305.99C547.031 306.301 547.851 306.888 548.542 307.752C549.216 308.598 549.552 309.625 549.552 310.834C549.552 312.06 549.276 313.123 548.723 314.021C548.153 314.919 547.368 315.609 546.366 316.093C545.347 316.559 544.173 316.792 542.843 316.792C541.34 316.792 540.037 316.551 538.931 316.067C537.826 315.584 536.98 314.901 536.393 314.021C535.788 313.14 535.486 312.112 535.486 310.938C535.486 309.384 535.961 308.192 536.911 307.363C537.843 306.517 539.268 306.094 541.185 306.094V314.202C541.669 314.254 542.221 314.28 542.843 314.28C543.983 314.28 544.976 314.098 545.822 313.736C546.668 313.356 547.325 312.864 547.791 312.259C548.24 311.637 548.464 310.99 548.464 310.316C548.464 309.487 548.266 308.753 547.869 308.114C547.471 307.475 546.806 306.94 545.874 306.508L546.081 305.99ZM535.978 311.042C535.978 311.853 536.375 312.553 537.17 313.14C537.964 313.727 539.138 314.09 540.693 314.228V308.581C539.346 308.546 538.223 308.745 537.325 309.176C536.427 309.591 535.978 310.213 535.978 311.042Z" fill="#2E3092"/>
<path d="M192.688 108.358C193.103 109.429 193.699 109.982 194.476 110.016V110.534C193.785 110.483 192.861 110.457 191.704 110.457C190.219 110.457 189.113 110.483 188.388 110.534V110.016C189.044 109.982 189.511 109.904 189.787 109.783C190.08 109.645 190.227 109.403 190.227 109.058C190.227 108.764 190.124 108.358 189.916 107.84L188.336 103.592H182.067L181.005 106.338C180.66 107.27 180.487 107.979 180.487 108.462C180.487 108.997 180.668 109.386 181.031 109.628C181.411 109.87 181.981 109.999 182.741 110.016V110.534C181.756 110.483 180.763 110.457 179.762 110.457C178.984 110.457 178.337 110.483 177.819 110.534V110.016C178.682 109.809 179.364 109.058 179.865 107.763L185.953 92.0641H186.367L192.688 108.358ZM188.129 103.074L185.228 95.3281L182.274 103.074H188.129ZM206.855 107.711C206.855 108.505 207.002 109.084 207.296 109.446C207.589 109.809 208.099 109.99 208.824 109.99V110.534C208.289 110.483 207.753 110.457 207.218 110.457C206.13 110.457 205.232 110.578 204.524 110.819V108.514C204.213 109.291 203.747 109.887 203.125 110.301C202.503 110.699 201.743 110.897 200.845 110.897C199.187 110.897 197.884 110.301 196.934 109.11C196.001 107.918 195.543 106.174 195.561 103.877C195.561 102.374 195.82 101.096 196.338 100.043C196.873 98.9721 197.581 98.1691 198.462 97.6337C199.36 97.0983 200.344 96.8306 201.415 96.8306C202.072 96.8306 202.667 96.9602 203.203 97.2192C203.755 97.461 204.196 97.841 204.524 98.3591V93.3334C204.524 92.539 204.377 91.9605 204.083 91.5978C203.79 91.2351 203.28 91.0538 202.555 91.0538V90.5098C203.108 90.5616 203.643 90.5875 204.161 90.5875C205.249 90.5875 206.147 90.4666 206.855 90.2248V107.711ZM201.597 110.12C202.27 110.12 202.875 109.861 203.41 109.343C203.945 108.825 204.317 108.091 204.524 107.141V99.4212C204.058 98.0914 203.09 97.4265 201.622 97.4265C200.552 97.4265 199.688 97.9791 199.032 99.0844C198.376 100.172 198.056 101.77 198.073 103.877C198.056 105.949 198.35 107.512 198.954 108.566C199.559 109.602 200.439 110.12 201.597 110.12ZM213.592 110.716C212.504 110.716 211.692 110.448 211.157 109.913C210.639 109.36 210.38 108.6 210.38 107.633C210.38 106.856 210.587 106.217 211.002 105.716C211.433 105.215 211.934 104.818 212.504 104.524C213.091 104.231 213.86 103.92 214.81 103.592C215.777 103.264 216.493 102.962 216.96 102.685C217.426 102.409 217.659 102.038 217.659 101.571V99.9652C217.659 98.9635 217.443 98.2813 217.012 97.9187C216.597 97.5387 216.01 97.3488 215.25 97.3488C214.041 97.3488 213.186 97.6596 212.685 98.2813C213.031 98.3677 213.316 98.549 213.54 98.8253C213.782 99.1017 213.903 99.4471 213.903 99.8616C213.903 100.293 213.765 100.639 213.488 100.898C213.212 101.14 212.858 101.26 212.426 101.26C211.943 101.26 211.58 101.114 211.338 100.82C211.097 100.509 210.976 100.138 210.976 99.7061C210.976 99.2916 211.071 98.9462 211.261 98.6699C211.468 98.3936 211.77 98.1173 212.167 97.841C212.582 97.5474 213.109 97.3056 213.748 97.1156C214.387 96.9256 215.086 96.8306 215.846 96.8306C217.193 96.8306 218.212 97.1501 218.903 97.7891C219.334 98.1864 219.619 98.6699 219.758 99.2398C219.913 99.7925 219.991 100.526 219.991 101.442V108.643C219.991 109.075 220.051 109.386 220.172 109.576C220.293 109.766 220.5 109.861 220.794 109.861C221.001 109.861 221.191 109.818 221.364 109.731C221.554 109.628 221.752 109.49 221.959 109.317L222.244 109.757C221.795 110.103 221.407 110.353 221.079 110.509C220.768 110.647 220.371 110.716 219.887 110.716C219.058 110.716 218.48 110.509 218.151 110.094C217.823 109.68 217.659 109.118 217.659 108.41C217.141 109.274 216.545 109.878 215.872 110.224C215.198 110.552 214.438 110.716 213.592 110.716ZM214.732 109.68C215.872 109.68 216.848 109.023 217.659 107.711V102.633C217.504 102.875 217.288 103.074 217.012 103.229C216.735 103.385 216.312 103.592 215.742 103.851C215.086 104.127 214.551 104.395 214.136 104.654C213.739 104.896 213.393 105.233 213.1 105.664C212.806 106.096 212.66 106.649 212.66 107.322C212.66 108.099 212.849 108.687 213.229 109.084C213.609 109.481 214.11 109.68 214.732 109.68ZM231.287 96.8306C232.202 96.8306 233.022 97.0811 233.748 97.5819C234.49 98.0827 235.069 98.8167 235.483 99.7838C235.898 100.751 236.105 101.908 236.105 103.255C236.105 104.585 235.889 105.828 235.457 106.985C235.043 108.143 234.387 109.084 233.488 109.809C232.608 110.534 231.502 110.897 230.173 110.897C229.516 110.897 228.921 110.768 228.385 110.509C227.85 110.25 227.435 109.913 227.142 109.498V112.814C227.142 113.522 227.349 114.006 227.763 114.265C228.178 114.541 228.8 114.679 229.629 114.679V115.223L229.033 115.197C227.427 115.146 226.382 115.12 225.898 115.12C225.484 115.12 224.551 115.154 223.1 115.223V114.679C223.739 114.679 224.18 114.558 224.422 114.317C224.681 114.092 224.81 113.678 224.81 113.073V100.017C224.81 99.2226 224.663 98.644 224.37 98.2813C224.076 97.9187 223.567 97.7373 222.841 97.7373V97.1933C223.377 97.2451 223.912 97.271 224.448 97.271C225.536 97.271 226.434 97.1501 227.142 96.9084V99.6543C227.522 98.7563 228.074 98.0655 228.8 97.5819C229.525 97.0811 230.354 96.8306 231.287 96.8306ZM229.888 110.301C232.357 110.301 233.592 108.073 233.592 103.618C233.592 99.6111 232.59 97.6078 230.587 97.6078C229.81 97.6078 229.11 97.8928 228.489 98.4627C227.867 99.0153 227.418 99.8184 227.142 100.872V108.643C227.383 109.144 227.738 109.55 228.204 109.861C228.67 110.155 229.231 110.301 229.888 110.301ZM242.246 97.2192H246.08V97.7373H242.246V107.763C242.246 108.54 242.384 109.101 242.66 109.446C242.954 109.792 243.368 109.965 243.904 109.965C244.439 109.965 244.897 109.749 245.277 109.317C245.657 108.885 245.976 108.177 246.235 107.193L246.753 107.322C246.322 109.706 245.199 110.897 243.386 110.897C242.798 110.897 242.315 110.828 241.935 110.69C241.555 110.552 241.218 110.336 240.925 110.042C240.545 109.662 240.277 109.196 240.122 108.643C239.983 108.091 239.914 107.348 239.914 106.416V97.7373H237.427V97.2192H239.914V93.2557C240.882 93.2212 241.659 93.1003 242.246 92.8931V97.2192ZM250.704 110.716C249.616 110.716 248.805 110.448 248.269 109.913C247.751 109.36 247.492 108.6 247.492 107.633C247.492 106.856 247.699 106.217 248.114 105.716C248.546 105.215 249.046 104.818 249.616 104.524C250.203 104.231 250.972 103.92 251.922 103.592C252.889 103.264 253.606 102.962 254.072 102.685C254.538 102.409 254.771 102.038 254.771 101.571V99.9652C254.771 98.9635 254.556 98.2813 254.124 97.9187C253.709 97.5387 253.122 97.3488 252.362 97.3488C251.153 97.3488 250.298 97.6596 249.798 98.2813C250.143 98.3677 250.428 98.549 250.652 98.8253C250.894 99.1017 251.015 99.4471 251.015 99.8616C251.015 100.293 250.877 100.639 250.601 100.898C250.324 101.14 249.97 101.26 249.539 101.26C249.055 101.26 248.692 101.114 248.451 100.82C248.209 100.509 248.088 100.138 248.088 99.7061C248.088 99.2916 248.183 98.9462 248.373 98.6699C248.58 98.3936 248.882 98.1173 249.279 97.841C249.694 97.5474 250.221 97.3056 250.86 97.1156C251.499 96.9256 252.198 96.8306 252.958 96.8306C254.305 96.8306 255.324 97.1501 256.015 97.7891C256.447 98.1864 256.732 98.6699 256.87 99.2398C257.025 99.7925 257.103 100.526 257.103 101.442V108.643C257.103 109.075 257.163 109.386 257.284 109.576C257.405 109.766 257.612 109.861 257.906 109.861C258.113 109.861 258.303 109.818 258.476 109.731C258.666 109.628 258.864 109.49 259.072 109.317L259.357 109.757C258.908 110.103 258.519 110.353 258.191 110.509C257.88 110.647 257.483 110.716 256.999 110.716C256.17 110.716 255.592 110.509 255.264 110.094C254.935 109.68 254.771 109.118 254.771 108.41C254.253 109.274 253.657 109.878 252.984 110.224C252.31 110.552 251.551 110.716 250.704 110.716ZM251.844 109.68C252.984 109.68 253.96 109.023 254.771 107.711V102.633C254.616 102.875 254.4 103.074 254.124 103.229C253.847 103.385 253.424 103.592 252.854 103.851C252.198 104.127 251.663 104.395 251.248 104.654C250.851 104.896 250.506 105.233 250.212 105.664C249.918 106.096 249.772 106.649 249.772 107.322C249.772 108.099 249.962 108.687 250.342 109.084C250.722 109.481 251.222 109.68 251.844 109.68ZM267.829 96.8306C269.297 96.8306 270.48 97.4351 271.378 98.644C272.293 99.8529 272.751 101.597 272.751 103.877C272.751 105.379 272.492 106.657 271.974 107.711C271.456 108.764 270.756 109.559 269.875 110.094C269.012 110.629 268.045 110.897 266.974 110.897C266.335 110.897 265.713 110.768 265.109 110.509C264.522 110.25 264.003 109.878 263.554 109.395L261.715 110.949L261.275 110.768C261.396 110.336 261.456 109.835 261.456 109.265V93.3594C261.456 92.5649 261.309 91.9864 261.016 91.6237C260.722 91.261 260.213 91.0797 259.487 91.0797V90.5357C260.04 90.5875 260.575 90.6134 261.093 90.6134C262.181 90.6134 263.08 90.4925 263.788 90.2507V99.6025C264.168 98.7217 264.712 98.0396 265.42 97.556C266.145 97.0724 266.948 96.8306 267.829 96.8306ZM266.767 110.301C267.924 110.301 268.787 109.783 269.357 108.747C269.944 107.694 270.238 106.07 270.238 103.877C270.238 101.77 269.979 100.198 269.461 99.1621C268.943 98.1259 268.148 97.6078 267.078 97.6078C266.352 97.6078 265.687 97.8928 265.083 98.4627C264.478 99.0153 264.047 99.8011 263.788 100.82V109.032C264.185 109.446 264.642 109.766 265.161 109.99C265.679 110.198 266.214 110.301 266.767 110.301ZM277.685 90.717C278.134 90.717 278.523 90.8811 278.851 91.2092C279.179 91.5374 279.343 91.9259 279.343 92.375C279.343 92.824 279.179 93.2126 278.851 93.5407C278.523 93.8688 278.134 94.0329 277.685 94.0329C277.236 94.0329 276.848 93.8688 276.519 93.5407C276.191 93.2126 276.027 92.824 276.027 92.375C276.027 91.9259 276.191 91.5374 276.519 91.2092C276.848 90.8811 277.236 90.717 277.685 90.717ZM279.032 108.125C279.032 108.833 279.179 109.326 279.473 109.602C279.766 109.861 280.276 109.99 281.001 109.99V110.534C279.412 110.465 278.367 110.431 277.866 110.431C277.366 110.431 276.321 110.465 274.732 110.534V109.99C275.457 109.99 275.967 109.861 276.26 109.602C276.554 109.326 276.701 108.833 276.701 108.125V100.017C276.701 99.2226 276.554 98.644 276.26 98.2813C275.967 97.9187 275.457 97.7373 274.732 97.7373V97.1933C275.285 97.2451 275.82 97.271 276.338 97.271C277.426 97.271 278.324 97.1501 279.032 96.9084V108.125ZM286.44 108.125C286.44 108.833 286.587 109.326 286.881 109.602C287.174 109.861 287.684 109.99 288.409 109.99V110.534C286.82 110.465 285.775 110.431 285.275 110.431C284.774 110.431 283.729 110.465 282.14 110.534V109.99C282.865 109.99 283.375 109.861 283.668 109.602C283.962 109.326 284.109 108.833 284.109 108.125V93.3334C284.109 92.539 283.962 91.9605 283.668 91.5978C283.375 91.2351 282.865 91.0538 282.14 91.0538V90.5098C282.675 90.5616 283.211 90.5875 283.746 90.5875C284.834 90.5875 285.732 90.4666 286.44 90.2248V108.125ZM292.687 90.717C293.136 90.717 293.524 90.8811 293.853 91.2092C294.181 91.5374 294.345 91.9259 294.345 92.375C294.345 92.824 294.181 93.2126 293.853 93.5407C293.524 93.8688 293.136 94.0329 292.687 94.0329C292.238 94.0329 291.849 93.8688 291.521 93.5407C291.193 93.2126 291.029 92.824 291.029 92.375C291.029 91.9259 291.193 91.5374 291.521 91.2092C291.849 90.8811 292.238 90.717 292.687 90.717ZM294.034 108.125C294.034 108.833 294.181 109.326 294.474 109.602C294.768 109.861 295.277 109.99 296.003 109.99V110.534C294.414 110.465 293.369 110.431 292.868 110.431C292.367 110.431 291.323 110.465 289.734 110.534V109.99C290.459 109.99 290.968 109.861 291.262 109.602C291.556 109.326 291.702 108.833 291.702 108.125V100.017C291.702 99.2226 291.556 98.644 291.262 98.2813C290.968 97.9187 290.459 97.7373 289.734 97.7373V97.1933C290.286 97.2451 290.822 97.271 291.34 97.271C292.428 97.271 293.326 97.1501 294.034 96.9084V108.125ZM301.494 97.2192H305.328V97.7373H301.494V107.763C301.494 108.54 301.632 109.101 301.908 109.446C302.202 109.792 302.616 109.965 303.152 109.965C303.687 109.965 304.145 109.749 304.525 109.317C304.905 108.885 305.224 108.177 305.483 107.193L306.001 107.322C305.57 109.706 304.447 110.897 302.634 110.897C302.046 110.897 301.563 110.828 301.183 110.69C300.803 110.552 300.466 110.336 300.173 110.042C299.793 109.662 299.525 109.196 299.37 108.643C299.231 108.091 299.162 107.348 299.162 106.416V97.7373H296.675V97.2192H299.162V93.2557C300.129 93.2212 300.907 93.1003 301.494 92.8931V97.2192ZM316.558 97.271C317.318 97.271 317.974 97.2451 318.527 97.1933V97.7114C318.181 97.746 317.871 97.9014 317.594 98.1777C317.335 98.454 317.085 98.9031 316.843 99.5248L312.595 110.664L311.714 112.918C311.386 113.764 311.014 114.368 310.6 114.731C310.341 114.973 310.03 115.146 309.667 115.249C309.305 115.353 308.942 115.405 308.579 115.405C308.061 115.405 307.638 115.266 307.31 114.99C306.982 114.714 306.818 114.334 306.818 113.85C306.818 113.436 306.939 113.099 307.18 112.84C307.422 112.598 307.759 112.477 308.191 112.477C308.571 112.477 308.881 112.581 309.123 112.788C309.382 113.013 309.512 113.315 309.512 113.695C309.512 114.213 309.279 114.602 308.812 114.861C308.847 114.878 308.899 114.887 308.968 114.887C309.918 114.887 310.652 114.213 311.17 112.866L312.076 110.509L307.388 99.188C307.094 98.6008 306.8 98.2123 306.507 98.0223C306.213 97.8323 305.92 97.7373 305.626 97.7373V97.1933C306.369 97.2969 307.215 97.3488 308.165 97.3488C309.028 97.3488 310.151 97.2969 311.532 97.1933V97.7373C310.911 97.7373 310.453 97.7891 310.159 97.8928C309.883 97.9964 309.745 98.2468 309.745 98.644C309.745 99.0067 309.849 99.4298 310.056 99.9134L313.164 107.633L316.04 100.147C316.23 99.6284 316.325 99.2312 316.325 98.9549C316.325 98.5577 316.169 98.2641 315.859 98.0741C315.548 97.8841 315.056 97.7632 314.382 97.7114V97.1933C315.297 97.2451 316.023 97.271 316.558 97.271Z" fill="#2E3092"/>
<path d="M108.712 361.845C108.09 361.88 107.632 361.949 107.339 362.053C107.063 362.156 106.873 362.355 106.769 362.648C106.665 362.942 106.614 363.417 106.614 364.073V376.922C106.614 377.578 106.665 378.053 106.769 378.347C106.873 378.641 107.063 378.839 107.339 378.943C107.632 379.046 108.09 379.115 108.712 379.15V379.668C107.987 379.616 106.881 379.59 105.396 379.59C103.997 379.59 102.9 379.616 102.106 379.668V379.15C102.728 379.115 103.177 379.046 103.453 378.943C103.747 378.839 103.945 378.641 104.049 378.347C104.153 378.053 104.204 377.578 104.204 376.922V370.705H95.7852V376.922C95.7852 377.578 95.837 378.053 95.9406 378.347C96.0442 378.641 96.2342 378.839 96.5105 378.943C96.8041 379.046 97.2618 379.115 97.8835 379.15V379.668C97.0891 379.616 95.9924 379.59 94.5935 379.59C93.1083 379.59 92.003 379.616 91.2777 379.668V379.15C91.8994 379.115 92.3484 379.046 92.6248 378.943C92.9183 378.839 93.117 378.641 93.2206 378.347C93.3242 378.053 93.376 377.578 93.376 376.922V364.073C93.376 363.417 93.3242 362.942 93.2206 362.648C93.117 362.355 92.9183 362.156 92.6248 362.053C92.3484 361.949 91.8994 361.88 91.2777 361.845V361.327C92.003 361.379 93.1083 361.405 94.5935 361.405C95.9752 361.405 97.0718 361.379 97.8835 361.327V361.845C97.2618 361.88 96.8041 361.949 96.5105 362.053C96.2342 362.156 96.0442 362.355 95.9406 362.648C95.837 362.942 95.7852 363.417 95.7852 364.073V370.187H104.204V364.073C104.204 363.417 104.153 362.942 104.049 362.648C103.945 362.355 103.747 362.156 103.453 362.053C103.177 361.949 102.728 361.88 102.106 361.845V361.327C102.9 361.379 103.997 361.405 105.396 361.405C106.881 361.405 107.987 361.379 108.712 361.327V361.845ZM121.334 376.559C121.024 377.509 120.436 378.33 119.573 379.02C118.727 379.694 117.699 380.031 116.49 380.031C115.264 380.031 114.202 379.754 113.304 379.202C112.406 378.632 111.715 377.846 111.231 376.844C110.765 375.825 110.532 374.651 110.532 373.321C110.532 371.819 110.774 370.515 111.257 369.41C111.741 368.304 112.423 367.458 113.304 366.871C114.185 366.266 115.212 365.964 116.386 365.964C117.941 365.964 119.132 366.439 119.961 367.389C120.808 368.322 121.231 369.746 121.231 371.663H113.122C113.071 372.147 113.045 372.7 113.045 373.321C113.045 374.461 113.226 375.454 113.589 376.3C113.969 377.147 114.461 377.803 115.065 378.269C115.687 378.718 116.335 378.943 117.008 378.943C117.837 378.943 118.571 378.744 119.21 378.347C119.849 377.95 120.385 377.285 120.816 376.352L121.334 376.559ZM116.283 366.456C115.471 366.456 114.772 366.854 114.185 367.648C113.597 368.443 113.235 369.617 113.097 371.171H118.744C118.778 369.824 118.58 368.702 118.148 367.804C117.734 366.905 117.112 366.456 116.283 366.456ZM134.439 376.559C134.128 377.509 133.541 378.33 132.677 379.02C131.831 379.694 130.803 380.031 129.594 380.031C128.368 380.031 127.306 379.754 126.408 379.202C125.51 378.632 124.819 377.846 124.336 376.844C123.869 375.825 123.636 374.651 123.636 373.321C123.636 371.819 123.878 370.515 124.362 369.41C124.845 368.304 125.527 367.458 126.408 366.871C127.289 366.266 128.316 365.964 129.491 365.964C131.045 365.964 132.237 366.439 133.066 367.389C133.912 368.322 134.335 369.746 134.335 371.663H126.227C126.175 372.147 126.149 372.7 126.149 373.321C126.149 374.461 126.33 375.454 126.693 376.3C127.073 377.147 127.565 377.803 128.17 378.269C128.791 378.718 129.439 378.943 130.113 378.943C130.942 378.943 131.676 378.744 132.315 378.347C132.954 377.95 133.489 377.285 133.921 376.352L134.439 376.559ZM129.387 366.456C128.576 366.456 127.876 366.854 127.289 367.648C126.702 368.443 126.339 369.617 126.201 371.171H131.848C131.883 369.824 131.684 368.702 131.252 367.804C130.838 366.905 130.216 366.456 129.387 366.456ZM148.087 376.844C148.087 377.639 148.234 378.217 148.528 378.58C148.821 378.943 149.331 379.124 150.056 379.124V379.668C149.521 379.616 148.985 379.59 148.45 379.59C147.362 379.59 146.464 379.711 145.756 379.953V377.647C145.445 378.425 144.978 379.02 144.357 379.435C143.735 379.832 142.975 380.031 142.077 380.031C140.419 380.031 139.115 379.435 138.165 378.243C137.233 377.052 136.775 375.307 136.792 373.01C136.792 371.508 137.052 370.23 137.57 369.176C138.105 368.106 138.813 367.303 139.694 366.767C140.592 366.232 141.576 365.964 142.647 365.964C143.303 365.964 143.899 366.094 144.434 366.353C144.987 366.595 145.428 366.975 145.756 367.493V362.467C145.756 361.673 145.609 361.094 145.315 360.731C145.022 360.369 144.512 360.187 143.787 360.187V359.643C144.34 359.695 144.875 359.721 145.393 359.721C146.481 359.721 147.379 359.6 148.087 359.358V376.844ZM142.828 379.254C143.502 379.254 144.106 378.995 144.642 378.476C145.177 377.958 145.548 377.224 145.756 376.275V368.555C145.289 367.225 144.322 366.56 142.854 366.56C141.784 366.56 140.92 367.113 140.264 368.218C139.607 369.306 139.288 370.904 139.305 373.01C139.288 375.083 139.582 376.646 140.186 377.699C140.79 378.736 141.671 379.254 142.828 379.254ZM157.751 359.41C158.649 359.41 159.4 359.643 160.005 360.11C160.54 360.541 160.808 361.077 160.808 361.716C160.808 362.113 160.678 362.441 160.419 362.7C160.16 362.959 159.832 363.089 159.435 363.089C159.038 363.089 158.701 362.968 158.425 362.726C158.148 362.467 158.01 362.122 158.01 361.69C158.01 361.327 158.105 361.034 158.295 360.809C158.502 360.585 158.77 360.438 159.098 360.369C159.046 360.196 158.908 360.058 158.684 359.954C158.459 359.851 158.174 359.799 157.829 359.799C157.449 359.799 157.112 359.885 156.819 360.058C156.525 360.231 156.3 360.464 156.145 360.757C155.955 361.103 155.826 361.612 155.756 362.286C155.705 362.959 155.679 364.09 155.679 365.679V366.353H158.451V366.871H155.679V377C155.679 377.794 155.903 378.347 156.352 378.658C156.819 378.969 157.509 379.124 158.425 379.124V379.668L157.803 379.642C156.041 379.59 154.919 379.564 154.435 379.564C153.986 379.564 152.967 379.599 151.378 379.668V379.124C152.104 379.124 152.613 378.995 152.907 378.736C153.2 378.459 153.347 377.967 153.347 377.259V366.871H151.275V366.353H153.347C153.347 364.833 153.442 363.659 153.632 362.83C153.822 362.001 154.168 361.293 154.668 360.706C155.014 360.308 155.454 359.997 155.99 359.773C156.525 359.531 157.112 359.41 157.751 359.41ZM171.715 376.87C171.715 377.665 171.862 378.243 172.155 378.606C172.449 378.969 172.958 379.15 173.684 379.15V379.694C173.148 379.642 172.613 379.616 172.078 379.616C170.99 379.616 170.091 379.737 169.383 379.979V376.922C168.969 377.993 168.382 378.779 167.622 379.28C166.862 379.78 166.033 380.031 165.135 380.031C163.961 380.031 163.063 379.703 162.441 379.046C162.13 378.701 161.905 378.261 161.767 377.725C161.646 377.19 161.586 376.499 161.586 375.653V369.151C161.586 368.356 161.439 367.778 161.146 367.415C160.852 367.052 160.342 366.871 159.617 366.871V366.327C160.153 366.379 160.688 366.405 161.223 366.405C162.311 366.405 163.209 366.284 163.917 366.042V376.223C163.917 376.879 163.952 377.414 164.021 377.829C164.107 378.226 164.289 378.554 164.565 378.813C164.859 379.072 165.299 379.202 165.886 379.202C166.542 379.202 167.138 378.995 167.674 378.58C168.209 378.166 168.624 377.604 168.917 376.896C169.228 376.171 169.383 375.376 169.383 374.513V369.151C169.383 368.356 169.237 367.778 168.943 367.415C168.649 367.052 168.14 366.871 167.415 366.871V366.327C167.95 366.379 168.485 366.405 169.021 366.405C170.109 366.405 171.007 366.284 171.715 366.042V376.87ZM179.125 377.259C179.125 377.967 179.272 378.459 179.566 378.736C179.859 378.995 180.369 379.124 181.094 379.124V379.668C179.505 379.599 178.46 379.564 177.959 379.564C177.459 379.564 176.414 379.599 174.825 379.668V379.124C175.55 379.124 176.06 378.995 176.353 378.736C176.647 378.459 176.794 377.967 176.794 377.259V362.467C176.794 361.673 176.647 361.094 176.353 360.731C176.06 360.369 175.55 360.187 174.825 360.187V359.643C175.36 359.695 175.896 359.721 176.431 359.721C177.519 359.721 178.417 359.6 179.125 359.358V377.259Z" fill="#2E3092"/>
<path d="M336.475 387.405C337.252 387.405 337.9 387.379 338.418 387.327V387.845C338.072 387.932 337.735 388.156 337.407 388.519C337.079 388.864 336.725 389.408 336.345 390.151L332.278 398.207V402.922C332.278 403.578 332.33 404.053 332.434 404.347C332.537 404.641 332.727 404.839 333.003 404.943C333.297 405.046 333.755 405.115 334.376 405.15V405.668C333.582 405.616 332.485 405.59 331.086 405.59C329.601 405.59 328.496 405.616 327.771 405.668V405.15C328.392 405.115 328.841 405.046 329.118 404.943C329.411 404.839 329.61 404.641 329.713 404.347C329.817 404.053 329.869 403.578 329.869 402.922V399.036L324.61 389.322C324.299 388.752 324.023 388.372 323.781 388.182C323.557 387.975 323.332 387.871 323.108 387.871V387.327C323.781 387.379 324.541 387.405 325.387 387.405C327.063 387.405 328.271 387.379 329.014 387.327V387.871C327.805 387.871 327.201 388.199 327.201 388.856C327.201 389.115 327.287 389.417 327.46 389.762L331.76 398.026L335.076 391.446C335.542 390.531 335.775 389.788 335.775 389.218C335.775 388.735 335.585 388.389 335.205 388.182C334.825 387.975 334.256 387.863 333.496 387.845V387.327C334.48 387.379 335.473 387.405 336.475 387.405ZM343.843 391.964C345.605 391.964 347.021 392.551 348.092 393.726C349.18 394.883 349.724 396.644 349.724 399.01C349.724 401.376 349.18 403.138 348.092 404.295C347.021 405.452 345.605 406.031 343.843 406.031C342.082 406.031 340.657 405.452 339.569 404.295C338.498 403.138 337.963 401.376 337.963 399.01C337.963 396.644 338.498 394.883 339.569 393.726C340.657 392.551 342.082 391.964 343.843 391.964ZM343.843 392.482C342.807 392.482 341.987 393.018 341.382 394.088C340.778 395.142 340.475 396.783 340.475 399.01C340.475 401.238 340.778 402.879 341.382 403.932C341.987 404.986 342.807 405.513 343.843 405.513C344.879 405.513 345.7 404.986 346.304 403.932C346.909 402.879 347.211 401.238 347.211 399.01C347.211 396.783 346.909 395.142 346.304 394.088C345.7 393.018 344.879 392.482 343.843 392.482ZM363.449 402.87C363.449 403.665 363.596 404.243 363.89 404.606C364.183 404.969 364.693 405.15 365.418 405.15V405.694C364.883 405.642 364.348 405.616 363.812 405.616C362.724 405.616 361.826 405.737 361.118 405.979V402.922C360.704 403.993 360.116 404.779 359.356 405.28C358.597 405.78 357.768 406.031 356.87 406.031C355.695 406.031 354.797 405.703 354.175 405.046C353.865 404.701 353.64 404.261 353.502 403.725C353.381 403.19 353.321 402.499 353.321 401.653V395.151C353.321 394.356 353.174 393.778 352.88 393.415C352.587 393.052 352.077 392.871 351.352 392.871V392.327C351.887 392.379 352.423 392.405 352.958 392.405C354.046 392.405 354.944 392.284 355.652 392.042V402.223C355.652 402.879 355.687 403.414 355.756 403.829C355.842 404.226 356.023 404.554 356.3 404.813C356.593 405.072 357.034 405.202 357.621 405.202C358.277 405.202 358.873 404.995 359.408 404.58C359.944 404.166 360.358 403.604 360.652 402.896C360.963 402.171 361.118 401.376 361.118 400.513V395.151C361.118 394.356 360.971 393.778 360.678 393.415C360.384 393.052 359.875 392.871 359.149 392.871V392.327C359.685 392.379 360.22 392.405 360.755 392.405C361.843 392.405 362.741 392.284 363.449 392.042V402.87ZM370.912 392.353H374.746V392.871H370.912V402.896C370.912 403.673 371.05 404.235 371.326 404.58C371.62 404.925 372.034 405.098 372.57 405.098C373.105 405.098 373.563 404.882 373.943 404.451C374.322 404.019 374.642 403.311 374.901 402.326L375.419 402.456C374.987 404.839 373.865 406.031 372.051 406.031C371.464 406.031 370.981 405.962 370.601 405.824C370.221 405.685 369.884 405.469 369.59 405.176C369.21 404.796 368.943 404.33 368.787 403.777C368.649 403.224 368.58 402.482 368.58 401.549V392.871H366.093V392.353H368.58V388.389C369.547 388.355 370.324 388.234 370.912 388.027V392.353ZM379.966 395.073C380.398 393.985 380.993 393.199 381.753 392.716C382.53 392.215 383.403 391.964 384.37 391.964C385.579 391.964 386.494 392.292 387.116 392.949C387.444 393.294 387.677 393.726 387.815 394.244C387.953 394.762 388.022 395.461 388.022 396.342V403.259C388.022 403.967 388.169 404.459 388.463 404.736C388.756 404.995 389.266 405.124 389.991 405.124V405.668C388.402 405.599 387.366 405.564 386.883 405.564C386.399 405.564 385.432 405.599 383.981 405.668V405.124C384.62 405.124 385.061 404.995 385.302 404.736C385.561 404.459 385.691 403.967 385.691 403.259V395.772C385.691 394.805 385.553 394.071 385.276 393.57C385 393.052 384.439 392.793 383.593 392.793C382.885 392.793 382.254 392.992 381.702 393.389C381.166 393.786 380.743 394.348 380.432 395.073C380.121 395.781 379.966 396.584 379.966 397.482V403.259C379.966 403.967 380.087 404.459 380.329 404.736C380.588 404.995 381.037 405.124 381.676 405.124V405.668C380.225 405.599 379.258 405.564 378.774 405.564C378.291 405.564 377.254 405.599 375.666 405.668V405.124C376.391 405.124 376.9 404.995 377.194 404.736C377.488 404.459 377.634 403.967 377.634 403.259V388.493C377.634 387.699 377.488 387.12 377.194 386.757C376.9 386.395 376.391 386.213 375.666 386.213V385.669C376.218 385.721 376.754 385.747 377.272 385.747C378.36 385.747 379.258 385.626 379.966 385.384V395.073ZM397.527 385.41C398.425 385.41 399.176 385.643 399.78 386.11C400.316 386.541 400.584 387.077 400.584 387.716C400.584 388.113 400.454 388.441 400.195 388.7C399.936 388.959 399.608 389.089 399.211 389.089C398.813 389.089 398.477 388.968 398.2 388.726C397.924 388.467 397.786 388.122 397.786 387.69C397.786 387.327 397.881 387.034 398.071 386.809C398.278 386.585 398.546 386.438 398.874 386.369C398.822 386.196 398.684 386.058 398.459 385.954C398.235 385.851 397.95 385.799 397.604 385.799C397.225 385.799 396.888 385.885 396.594 386.058C396.301 386.231 396.076 386.464 395.921 386.757C395.731 387.103 395.601 387.612 395.532 388.286C395.48 388.959 395.454 390.09 395.454 391.679V392.353H398.226V392.871H395.454V403C395.454 403.794 395.679 404.347 396.128 404.658C396.594 404.969 397.285 405.124 398.2 405.124V405.668L397.579 405.642C395.817 405.59 394.694 405.564 394.211 405.564C393.762 405.564 392.743 405.599 391.154 405.668V405.124C391.879 405.124 392.389 404.995 392.682 404.736C392.976 404.459 393.123 403.967 393.123 403.259V392.871H391.05V392.353H393.123C393.123 390.833 393.218 389.659 393.408 388.83C393.598 388.001 393.943 387.293 394.444 386.706C394.789 386.308 395.23 385.997 395.765 385.773C396.301 385.531 396.888 385.41 397.527 385.41ZM411.49 402.87C411.49 403.665 411.637 404.243 411.931 404.606C412.224 404.969 412.734 405.15 413.459 405.15V405.694C412.924 405.642 412.388 405.616 411.853 405.616C410.765 405.616 409.867 405.737 409.159 405.979V402.922C408.744 403.993 408.157 404.779 407.397 405.28C406.638 405.78 405.809 406.031 404.911 406.031C403.736 406.031 402.838 405.703 402.216 405.046C401.906 404.701 401.681 404.261 401.543 403.725C401.422 403.19 401.362 402.499 401.362 401.653V395.151C401.362 394.356 401.215 393.778 400.921 393.415C400.628 393.052 400.118 392.871 399.393 392.871V392.327C399.928 392.379 400.463 392.405 400.999 392.405C402.087 392.405 402.985 392.284 403.693 392.042V402.223C403.693 402.879 403.728 403.414 403.797 403.829C403.883 404.226 404.064 404.554 404.341 404.813C404.634 405.072 405.075 405.202 405.662 405.202C406.318 405.202 406.914 404.995 407.449 404.58C407.985 404.166 408.399 403.604 408.693 402.896C409.004 402.171 409.159 401.376 409.159 400.513V395.151C409.159 394.356 409.012 393.778 408.719 393.415C408.425 393.052 407.916 392.871 407.19 392.871V392.327C407.726 392.379 408.261 392.405 408.796 392.405C409.884 392.405 410.782 392.284 411.49 392.042V402.87ZM418.901 403.259C418.901 403.967 419.048 404.459 419.341 404.736C419.635 404.995 420.144 405.124 420.87 405.124V405.668C419.281 405.599 418.236 405.564 417.735 405.564C417.234 405.564 416.189 405.599 414.6 405.668V405.124C415.326 405.124 415.835 404.995 416.129 404.736C416.422 404.459 416.569 403.967 416.569 403.259V388.467C416.569 387.673 416.422 387.094 416.129 386.731C415.835 386.369 415.326 386.187 414.6 386.187V385.643C415.136 385.695 415.671 385.721 416.207 385.721C417.295 385.721 418.193 385.6 418.901 385.358V403.259Z" fill="#2E3092"/>
<path d="M457.689 27.3565C457.655 26.752 457.56 26.303 457.404 26.0094C457.266 25.7158 457.024 25.5172 456.679 25.4136C456.351 25.31 455.859 25.2581 455.202 25.2581H439.737V24.6623L456.549 13.7822L442.871 13.7822C442.198 13.7822 441.697 13.834 441.369 13.9376C441.041 14.0585 440.799 14.283 440.644 14.6111C440.505 14.9393 440.419 15.4487 440.384 16.1395H439.866C439.918 15.5178 439.944 14.637 439.944 13.4972C439.944 12.461 439.918 11.6579 439.866 11.088H440.384C440.419 11.6925 440.505 12.1415 440.644 12.4351C440.799 12.7287 441.041 12.9273 441.369 13.0309C441.714 13.1345 442.215 13.1863 442.871 13.1863L455.461 13.1863C456.118 13.1863 456.593 13.1345 456.886 13.0309C457.18 12.9273 457.378 12.7287 457.482 12.4351C457.586 12.1588 457.655 11.7097 457.689 11.088H458.207C458.155 11.6579 458.13 12.461 458.13 13.4972C458.13 14.2744 458.155 14.9479 458.207 15.5178L444.115 24.6623H455.202C455.876 24.6623 456.377 24.6019 456.705 24.481C457.033 24.3774 457.266 24.1615 457.404 23.8334C457.56 23.5052 457.655 22.9958 457.689 22.305H458.207C458.155 22.9267 458.13 23.8075 458.13 24.9473C458.13 25.9835 458.155 26.7866 458.207 27.3565H457.689ZM453.57 34.9331C453.57 36.6947 452.983 38.1108 451.809 39.1816C450.652 40.2696 448.89 40.8136 446.524 40.8136C444.158 40.8136 442.396 40.2696 441.239 39.1816C440.082 38.1108 439.504 36.6947 439.504 34.9331C439.504 33.1716 440.082 31.7468 441.239 30.6588C442.396 29.588 444.158 29.0526 446.524 29.0526C448.89 29.0526 450.652 29.588 451.809 30.6588C452.983 31.7468 453.57 33.1716 453.57 34.9331ZM453.052 34.9331C453.052 33.8969 452.517 33.0766 451.446 32.4721C450.393 31.8677 448.752 31.5654 446.524 31.5654C444.296 31.5654 442.656 31.8677 441.602 32.4721C440.549 33.0766 440.022 33.8969 440.022 34.9331C440.022 35.9693 440.549 36.7897 441.602 37.3941C442.656 37.9986 444.296 38.3008 446.524 38.3008C448.752 38.3008 450.393 37.9986 451.446 37.3941C452.517 36.7897 453.052 35.9693 453.052 34.9331ZM453.57 51.4827C453.57 52.6916 453.242 53.6069 452.586 54.2286C452.24 54.5568 451.809 54.7899 451.291 54.9281C450.772 55.0662 450.073 55.1353 449.192 55.1353H442.276C441.568 55.1353 441.075 55.2821 440.799 55.5757C440.54 55.8693 440.41 56.3788 440.41 57.1041H439.866C439.935 55.5153 439.97 54.479 439.97 53.9955C439.97 53.5119 439.935 52.5448 439.866 51.0941H440.41C440.41 51.7331 440.54 52.1735 440.799 52.4153C441.075 52.6743 441.568 52.8038 442.276 52.8038H449.762C450.729 52.8038 451.463 52.6657 451.964 52.3894C452.482 52.113 452.741 51.5518 452.741 50.7055C452.741 49.9975 452.534 49.3671 452.12 48.8144C451.705 48.2618 451.135 47.8301 450.41 47.5192C449.702 47.2256 448.907 47.0788 448.027 47.0788H442.276C441.568 47.0788 441.075 47.1997 440.799 47.4415C440.54 47.7005 440.41 48.1496 440.41 48.7885H439.866C439.935 47.3379 439.97 46.3707 439.97 45.8872C439.97 45.4036 439.935 44.3674 439.866 42.7785H440.41C440.41 43.5039 440.54 44.0134 440.799 44.3069C441.075 44.6005 441.568 44.7473 442.276 44.7473H450.384C451.178 44.7473 451.757 44.6005 452.12 44.3069C452.482 44.0134 452.664 43.5039 452.664 42.7785H453.208C453.156 43.3312 453.13 43.8666 453.13 44.3847C453.13 45.4727 453.251 46.3707 453.493 47.0788H450.436C451.541 47.5106 452.335 48.1064 452.819 48.8663C453.32 49.6434 453.57 50.5156 453.57 51.4827ZM453.57 66.9398C453.57 68.1487 453.242 69.064 452.586 69.6857C452.24 70.0139 451.809 70.247 451.291 70.3852C450.772 70.5233 450.073 70.5924 449.192 70.5924H442.276C441.568 70.5924 441.075 70.7392 440.799 71.0328C440.54 71.3264 440.41 71.8358 440.41 72.5612H439.866C439.935 70.9723 439.97 69.9361 439.97 69.4526C439.97 68.969 439.935 68.0019 439.866 66.5512H440.41C440.41 67.1902 440.54 67.6306 440.799 67.8724C441.075 68.1314 441.568 68.2609 442.276 68.2609H449.762C450.729 68.2609 451.463 68.1228 451.964 67.8465C452.482 67.5701 452.741 67.0089 452.741 66.1626C452.741 65.4545 452.534 64.8242 452.12 64.2715C451.705 63.7189 451.135 63.2871 450.41 62.9763C449.702 62.6827 448.907 62.5359 448.027 62.5359H442.276C441.568 62.5359 441.075 62.6568 440.799 62.8986C440.54 63.1576 440.41 63.6066 440.41 64.2456H439.866C439.935 62.7949 439.97 61.8278 439.97 61.3443C439.97 60.8607 439.935 59.8245 439.866 58.2356H440.41C440.41 58.961 440.54 59.4704 440.799 59.764C441.075 60.0576 441.568 60.2044 442.276 60.2044H450.384C451.178 60.2044 451.757 60.0576 452.12 59.764C452.482 59.4704 452.664 58.961 452.664 58.2356H453.208C453.156 58.7883 453.13 59.3236 453.13 59.8418C453.13 60.9298 453.251 61.8278 453.493 62.5359H450.436C451.541 62.9676 452.335 63.5635 452.819 64.3233C453.32 65.1005 453.57 65.9726 453.57 66.9398ZM442.975 84.9356C442.025 84.6247 441.205 84.0375 440.514 83.174C439.84 82.3278 439.504 81.3002 439.504 80.0913C439.504 78.8651 439.78 77.803 440.333 76.905C440.903 76.0069 441.688 75.3161 442.69 74.8326C443.709 74.3663 444.883 74.1331 446.213 74.1331C447.716 74.1331 449.02 74.3749 450.125 74.8585C451.23 75.342 452.076 76.0242 452.664 76.905C453.268 77.7857 453.57 78.8133 453.57 79.9877C453.57 81.542 453.095 82.7336 452.145 83.5626C451.213 84.4088 449.788 84.8319 447.871 84.8319V76.7236C447.388 76.6718 446.835 76.6459 446.213 76.6459C445.073 76.6459 444.08 76.8273 443.234 77.1899C442.388 77.5699 441.732 78.0621 441.265 78.6665C440.816 79.2882 440.592 79.9359 440.592 80.6094C440.592 81.4384 440.79 82.1724 441.188 82.8113C441.585 83.4503 442.25 83.9857 443.182 84.4175L442.975 84.9356ZM453.078 79.8841C453.078 79.0724 452.681 78.3729 451.886 77.7857C451.092 77.1986 449.918 76.8359 448.363 76.6977V82.3451C449.71 82.3796 450.833 82.181 451.731 81.7492C452.629 81.3348 453.078 80.713 453.078 79.8841ZM450.876 98.2472C450.876 97.9363 450.98 97.6686 451.187 97.4441C451.394 97.2369 451.696 97.1333 452.094 97.1333C452.439 97.1333 452.836 97.2196 453.285 97.3923C453.095 96.9433 452.879 96.5893 452.638 96.3302C452.413 96.0711 452.128 95.838 451.783 95.6308C451.178 96.028 450.41 96.2266 449.477 96.2266C448.113 96.2266 447.085 95.8121 446.394 94.9831C445.721 94.1542 445.384 93.0575 445.384 91.6932V91.6673C445.056 91.0974 444.754 90.6656 444.478 90.372C444.201 90.0784 443.89 89.9316 443.545 89.9316C442.992 89.9316 442.716 90.3461 442.716 91.1751V94.4132C442.716 95.5876 442.457 96.5547 441.939 97.3146C441.438 98.0918 440.678 98.4803 439.659 98.4803C438.83 98.4803 438.062 98.2126 437.354 97.6773C436.646 97.1419 436.076 96.3561 435.644 95.3199C435.212 94.2837 434.996 93.0316 434.996 91.5636C434.996 90.0611 435.229 88.8004 435.696 87.7815C436.145 86.7798 436.818 86.279 437.716 86.279C438.303 86.279 438.813 86.5121 439.245 86.9784C439.676 87.462 440.013 88.1269 440.255 88.9731L439.84 89.1286C439.72 88.7486 439.478 88.4464 439.115 88.2219C438.752 87.9974 438.347 87.8851 437.898 87.8851C437.103 87.8851 436.499 88.2391 436.084 88.9472C435.652 89.6726 435.437 90.6397 435.437 91.8486C435.437 93.1784 435.696 94.3182 436.214 95.2681C436.715 96.2179 437.5 96.6929 438.571 96.6929C439.193 96.6929 439.676 96.4684 440.022 96.0193C440.367 95.5876 440.54 94.8104 440.54 93.6879V91.7709C440.54 90.752 440.669 89.9316 440.929 89.3099C441.188 88.7054 441.706 88.4032 442.483 88.4032C443.018 88.4032 443.528 88.5932 444.011 88.9731C444.495 89.3703 444.97 90.018 445.436 90.916C445.557 89.7762 445.954 88.8609 446.628 88.1701C447.301 87.4965 448.251 87.1598 449.477 87.1598C450.842 87.1598 451.86 87.5743 452.534 88.4032C453.225 89.2322 453.57 90.3288 453.57 91.6932C453.57 93.3166 453.121 94.5168 452.223 95.294C452.689 95.6221 453.069 96.0366 453.363 96.5374C453.674 97.0383 453.829 97.5391 453.829 98.0399C453.829 98.489 453.7 98.8516 453.441 99.128C453.182 99.4043 452.81 99.5424 452.327 99.5424C451.843 99.5424 451.481 99.4043 451.239 99.128C450.997 98.8689 450.876 98.5753 450.876 98.2472ZM445.85 91.6932C445.85 92.384 446.118 92.9021 446.654 93.2475C447.206 93.6102 448.147 93.7915 449.477 93.7915C450.807 93.7915 451.74 93.6102 452.275 93.2475C452.828 92.9021 453.104 92.384 453.104 91.6932C453.104 91.0024 452.828 90.4756 452.275 90.113C451.74 89.7676 450.807 89.5949 449.477 89.5949C448.147 89.5949 447.206 89.7676 446.654 90.113C446.118 90.4756 445.85 91.0024 445.85 91.6932ZM439.685 103.702C439.685 102.614 439.953 101.802 440.488 101.267C441.041 100.748 441.801 100.489 442.768 100.489C443.545 100.489 444.184 100.697 444.685 101.111C445.186 101.543 445.583 102.044 445.876 102.614C446.17 103.201 446.481 103.969 446.809 104.919C447.137 105.886 447.439 106.603 447.716 107.069C447.992 107.536 448.363 107.769 448.83 107.769H450.436C451.437 107.769 452.12 107.553 452.482 107.121C452.862 106.707 453.052 106.119 453.052 105.36C453.052 104.151 452.741 103.296 452.12 102.795C452.033 103.14 451.852 103.425 451.576 103.65C451.299 103.892 450.954 104.013 450.539 104.013C450.108 104.013 449.762 103.874 449.503 103.598C449.261 103.322 449.14 102.968 449.14 102.536C449.14 102.052 449.287 101.69 449.581 101.448C449.892 101.206 450.263 101.085 450.695 101.085C451.109 101.085 451.455 101.18 451.731 101.37C452.007 101.577 452.284 101.88 452.56 102.277C452.854 102.691 453.095 103.218 453.285 103.857C453.475 104.496 453.57 105.196 453.57 105.955C453.57 107.302 453.251 108.321 452.612 109.012C452.215 109.444 451.731 109.729 451.161 109.867C450.608 110.023 449.874 110.1 448.959 110.1H441.757C441.326 110.1 441.015 110.161 440.825 110.282C440.635 110.402 440.54 110.61 440.54 110.903C440.54 111.111 440.583 111.3 440.669 111.473C440.773 111.663 440.911 111.862 441.084 112.069L440.644 112.354C440.298 111.905 440.048 111.516 439.892 111.188C439.754 110.877 439.685 110.48 439.685 109.997C439.685 109.168 439.892 108.589 440.307 108.261C440.721 107.933 441.283 107.769 441.991 107.769C441.127 107.251 440.523 106.655 440.177 105.981C439.849 105.308 439.685 104.548 439.685 103.702ZM440.721 104.841C440.721 105.981 441.378 106.957 442.69 107.769H447.767C447.526 107.613 447.327 107.397 447.172 107.121C447.016 106.845 446.809 106.422 446.55 105.852C446.274 105.196 446.006 104.66 445.747 104.246C445.505 103.848 445.168 103.503 444.737 103.209C444.305 102.916 443.752 102.769 443.079 102.769C442.301 102.769 441.714 102.959 441.317 103.339C440.92 103.719 440.721 104.22 440.721 104.841ZM453.182 117.303V121.137H452.664V117.303H442.638C441.861 117.303 441.3 117.441 440.954 117.718C440.609 118.011 440.436 118.426 440.436 118.961C440.436 119.496 440.652 119.954 441.084 120.334C441.516 120.714 442.224 121.033 443.208 121.292L443.079 121.811C440.695 121.379 439.504 120.256 439.504 118.443C439.504 117.856 439.573 117.372 439.711 116.992C439.849 116.612 440.065 116.275 440.359 115.982C440.739 115.602 441.205 115.334 441.757 115.179C442.31 115.041 443.053 114.972 443.985 114.972H452.664V112.485H453.182V114.972H457.145C457.18 115.939 457.301 116.716 457.508 117.303H453.182ZM459.684 125.243C459.684 125.692 459.52 126.081 459.192 126.409C458.864 126.737 458.475 126.901 458.026 126.901C457.577 126.901 457.188 126.737 456.86 126.409C456.532 126.081 456.368 125.692 456.368 125.243C456.368 124.794 456.532 124.406 456.86 124.078C457.188 123.75 457.577 123.585 458.026 123.585C458.475 123.585 458.864 123.75 459.192 124.078C459.52 124.406 459.684 124.794 459.684 125.243ZM442.276 126.59C441.568 126.59 441.075 126.737 440.799 127.031C440.54 127.324 440.41 127.834 440.41 128.559H439.866C439.935 126.97 439.97 125.926 439.97 125.425C439.97 124.924 439.935 123.879 439.866 122.29H440.41C440.41 123.016 440.54 123.525 440.799 123.819C441.075 124.112 441.568 124.259 442.276 124.259H450.384C451.178 124.259 451.757 124.112 452.12 123.819C452.482 123.525 452.664 123.016 452.664 122.29H453.208C453.156 122.843 453.13 123.378 453.13 123.896C453.13 124.984 453.251 125.882 453.493 126.59H442.276ZM453.13 139.749C453.13 140.509 453.156 141.166 453.208 141.718H452.689C452.655 141.373 452.499 141.062 452.223 140.786C451.947 140.527 451.498 140.276 450.876 140.034L439.737 135.786V135.346L451.213 130.579C451.8 130.32 452.189 130.07 452.379 129.828C452.569 129.586 452.664 129.336 452.664 129.077H453.208C453.138 129.975 453.104 130.734 453.104 131.356C453.104 132.686 453.138 133.809 453.208 134.724H452.664C452.664 134.085 452.612 133.619 452.508 133.325C452.422 133.031 452.18 132.885 451.783 132.885C451.541 132.885 451.161 132.98 450.643 133.17L442.768 136.356L450.254 139.205C450.772 139.395 451.178 139.49 451.472 139.49C451.869 139.49 452.154 139.335 452.327 139.024C452.517 138.731 452.638 138.247 452.689 137.573H453.208C453.156 138.472 453.13 139.197 453.13 139.749ZM442.975 153.569C442.025 153.258 441.205 152.671 440.514 151.808C439.84 150.961 439.504 149.934 439.504 148.725C439.504 147.499 439.78 146.437 440.333 145.538C440.903 144.64 441.688 143.95 442.69 143.466C443.709 143 444.883 142.767 446.213 142.767C447.716 142.767 449.02 143.008 450.125 143.492C451.23 143.976 452.076 144.658 452.664 145.538C453.268 146.419 453.57 147.447 453.57 148.621C453.57 150.176 453.095 151.367 452.145 152.196C451.213 153.042 449.788 153.465 447.871 153.465V145.357C447.388 145.305 446.835 145.279 446.213 145.279C445.073 145.279 444.08 145.461 443.234 145.823C442.388 146.203 441.732 146.696 441.265 147.3C440.816 147.922 440.592 148.569 440.592 149.243C440.592 150.072 440.79 150.806 441.188 151.445C441.585 152.084 442.25 152.619 443.182 153.051L442.975 153.569ZM453.078 148.518C453.078 147.706 452.681 147.006 451.886 146.419C451.092 145.832 449.918 145.469 448.363 145.331V150.979C449.71 151.013 450.833 150.815 451.731 150.383C452.629 149.968 453.078 149.347 453.078 148.518Z" fill="#2E3092"/>
<path d="M60.8214 34.9173C61.5813 34.9173 62.1771 35.0036 62.6088 35.1763C63.0579 35.3318 63.5155 35.5649 63.9818 35.8758C64.3618 36.1175 64.6554 36.2384 64.8626 36.2384C65.018 36.2384 65.1389 36.1521 65.2253 35.9794C65.3116 35.7894 65.3807 35.4958 65.4325 35.0986H66.0283C65.942 36.1003 65.8988 37.8618 65.8988 40.3833H65.303C65.1994 38.9844 64.7935 37.81 64.0854 36.8602C63.3946 35.893 62.3843 35.4095 61.0545 35.4095C60.122 35.4095 59.3621 35.6944 58.7749 36.2643C58.1877 36.817 57.8941 37.5337 57.8941 38.4145C57.8941 39.0707 58.0409 39.6406 58.3345 40.1242C58.6454 40.6078 59.0339 41.0223 59.5002 41.3677C59.9665 41.7131 60.6314 42.1534 61.4949 42.6888L62.2462 43.1551C63.3342 43.8287 64.1891 44.4245 64.8108 44.9426C65.4498 45.4434 65.9593 46.022 66.3392 46.6782C66.7191 47.3345 66.9091 48.103 66.9091 48.9838C66.9091 50.5554 66.391 51.7729 65.3548 52.6364C64.3186 53.4826 63.0061 53.9058 61.4172 53.9058C60.5882 53.9058 59.9061 53.8194 59.3707 53.6467C58.8526 53.474 58.3518 53.2409 57.8682 52.9473C57.4883 52.7055 57.1947 52.5846 56.9874 52.5846C56.832 52.5846 56.7111 52.6796 56.6248 52.8696C56.5384 53.0423 56.4693 53.3272 56.4175 53.7244H55.8217C55.8908 52.7746 55.9253 50.7022 55.9253 47.5072H56.5211C56.642 49.2515 57.0738 50.6676 57.8164 51.7556C58.559 52.8437 59.6988 53.3877 61.2359 53.3877C62.1685 53.3877 62.9629 53.1027 63.6192 52.5328C64.2754 51.9456 64.6035 51.0821 64.6035 49.9423C64.6035 48.9751 64.2754 48.1548 63.6192 47.4813C62.9802 46.8077 61.9612 46.0479 60.5623 45.2016C59.5434 44.5799 58.7144 44.0273 58.0754 43.5437C57.4537 43.0601 56.9443 42.4816 56.547 41.808C56.1498 41.1172 55.9512 40.3142 55.9512 39.3989C55.9512 37.9482 56.4175 36.8429 57.3501 36.083C58.2827 35.3058 59.4398 34.9173 60.8214 34.9173ZM80.6917 50.7453C80.6917 51.5398 80.8385 52.1183 81.1321 52.481C81.4257 52.8437 81.9351 53.025 82.6605 53.025V53.569C82.1251 53.5172 81.5897 53.4913 81.0543 53.4913C79.9663 53.4913 79.0683 53.6122 78.3602 53.854V50.7971C77.9457 51.8679 77.3585 52.6537 76.5987 53.1545C75.8388 53.6553 75.0098 53.9058 74.1118 53.9058C72.9374 53.9058 72.0393 53.5776 71.4176 52.9214C71.1068 52.576 70.8822 52.1356 70.7441 51.6002C70.6232 51.0648 70.5627 50.374 70.5627 49.5278V43.0256C70.5627 42.2312 70.416 41.6526 70.1224 41.2899C69.8288 40.9273 69.3193 40.7459 68.594 40.7459V40.2019C69.1293 40.2537 69.6647 40.2796 70.2001 40.2796C71.2881 40.2796 72.1861 40.1588 72.8942 39.917V50.0977C72.8942 50.754 72.9288 51.2893 72.9978 51.7038C73.0842 52.101 73.2655 52.4292 73.5418 52.6882C73.8354 52.9473 74.2758 53.0768 74.863 53.0768C75.5193 53.0768 76.1151 52.8696 76.6505 52.4551C77.1858 52.0406 77.6003 51.4793 77.8939 50.7712C78.2048 50.0459 78.3602 49.2515 78.3602 48.388V43.0256C78.3602 42.2312 78.2134 41.6526 77.9198 41.2899C77.6262 40.9273 77.1168 40.7459 76.3914 40.7459V40.2019C76.9268 40.2537 77.4622 40.2796 77.9975 40.2796C79.0856 40.2796 79.9836 40.1588 80.6917 39.917V50.7453ZM105.096 51.1339C105.096 51.842 105.243 52.3342 105.536 52.6105C105.83 52.8696 106.339 52.9991 107.065 52.9991V53.5431C105.476 53.474 104.431 53.4395 103.93 53.4395C103.429 53.4395 102.384 53.474 100.796 53.5431V52.9991C101.521 52.9991 102.03 52.8696 102.324 52.6105C102.617 52.3342 102.764 51.842 102.764 51.1339V43.0256C102.764 42.2312 102.617 41.6526 102.324 41.2899C102.03 40.9273 101.521 40.7459 100.796 40.7459H96.6248V51.1339C96.6248 51.842 96.8061 52.3342 97.1688 52.6105C97.5487 52.8696 98.11 52.9991 98.8526 52.9991V53.5431L98.2827 53.5172C96.7802 53.4654 95.839 53.4395 95.459 53.4395C94.9582 53.4395 93.9134 53.474 92.3245 53.5431V52.9991C93.0499 52.9991 93.5593 52.8696 93.8529 52.6105C94.1465 52.3342 94.2933 51.842 94.2933 51.1339V40.7459H88.3092V51.1339C88.3092 51.842 88.456 52.3342 88.7496 52.6105C89.0432 52.8696 89.5527 52.9991 90.278 52.9991V53.5431C88.6891 53.474 87.6529 53.4395 87.1694 53.4395C86.6513 53.4395 85.5978 53.474 84.0089 53.5431V52.9991C84.7343 52.9991 85.2438 52.8696 85.5374 52.6105C85.8309 52.3342 85.9777 51.842 85.9777 51.1339V40.7459H83.9053V40.2278H85.9777C85.9777 38.3972 86.4009 36.9897 87.2471 36.0053C87.7134 35.4872 88.2919 35.0813 88.9827 34.7877C89.6908 34.4769 90.4766 34.3215 91.3401 34.3215C93.0844 34.3215 94.3883 34.9086 95.2518 36.083C95.5281 35.6513 95.8303 35.2799 96.1585 34.9691C96.6938 34.4682 97.3674 34.0624 98.1791 33.7515C98.9908 33.4407 99.932 33.2852 101.003 33.2852C101.711 33.2852 102.367 33.3543 102.972 33.4925C103.593 33.6306 104.094 33.8206 104.474 34.0624C105.061 34.4251 105.355 34.9 105.355 35.4872C105.355 35.9535 105.191 36.3507 104.863 36.6788C104.534 37.007 104.146 37.171 103.697 37.171C103.248 37.171 102.859 37.007 102.531 36.6788C102.203 36.3507 102.039 35.9621 102.039 35.5131C102.039 35.2022 102.117 34.9173 102.272 34.6582C102.428 34.3992 102.635 34.2006 102.894 34.0624C102.497 33.8033 101.866 33.6738 101.003 33.6738C99.293 33.6738 98.0668 34.3387 97.3242 35.6685C97.0652 36.1175 96.8838 36.6875 96.7802 37.3783C96.6766 38.0518 96.6248 39.0017 96.6248 40.2278H100.796C101.884 40.2278 102.73 40.2106 103.334 40.176C103.956 40.1242 104.543 40.0379 105.096 39.917V51.1339ZM94.2933 40.2278C94.2933 38.7253 94.5351 37.4905 95.0186 36.5234C94.656 36.0053 94.181 35.5908 93.5939 35.2799C93.0067 34.9518 92.359 34.7877 91.651 34.7877C89.4231 34.7877 88.3092 36.1607 88.3092 38.9067V40.2278H94.2933ZM114.821 39.8393C115.978 39.8393 116.98 40.1156 117.826 40.6682C118.638 41.2036 119.044 41.8685 119.044 42.6629C119.044 43.1119 118.914 43.466 118.655 43.725C118.396 43.9841 118.068 44.1136 117.671 44.1136C117.274 44.1136 116.937 44.0014 116.661 43.7768C116.384 43.5351 116.246 43.2156 116.246 42.8183C116.246 42.4557 116.35 42.1534 116.557 41.9117C116.764 41.6526 117.023 41.4799 117.334 41.3936C117.161 41.0827 116.851 40.8237 116.402 40.6164C115.97 40.4092 115.504 40.3055 115.003 40.3055C114.364 40.3055 113.768 40.5128 113.215 40.9273C112.663 41.3245 112.205 41.998 111.842 42.9479C111.48 43.8805 111.298 45.1153 111.298 46.6523C111.298 48.7938 111.644 50.3568 112.334 51.3412C113.025 52.3083 113.923 52.7918 115.029 52.7918C115.771 52.7918 116.471 52.576 117.127 52.1442C117.8 51.7125 118.353 51.0389 118.785 50.1236L119.277 50.3049C118.983 51.2893 118.431 52.1356 117.619 52.8437C116.825 53.5517 115.788 53.9058 114.51 53.9058C113.44 53.9058 112.464 53.6294 111.583 53.0768C110.72 52.5242 110.038 51.7297 109.537 50.6935C109.036 49.64 108.785 48.4225 108.785 47.0409C108.785 45.642 109.036 44.3986 109.537 43.3105C110.055 42.2225 110.771 41.3763 111.687 40.7718C112.602 40.1501 113.647 39.8393 114.821 39.8393ZM123.897 33.7256C124.346 33.7256 124.734 33.8897 125.062 34.2178C125.391 34.546 125.555 34.9345 125.555 35.3836C125.555 35.8326 125.391 36.2212 125.062 36.5493C124.734 36.8774 124.346 37.0415 123.897 37.0415C123.448 37.0415 123.059 36.8774 122.731 36.5493C122.403 36.2212 122.239 35.8326 122.239 35.3836C122.239 34.9345 122.403 34.546 122.731 34.2178C123.059 33.8897 123.448 33.7256 123.897 33.7256ZM125.244 51.1339C125.244 51.842 125.391 52.3342 125.684 52.6105C125.978 52.8696 126.487 52.9991 127.213 52.9991V53.5431C125.624 53.474 124.579 53.4395 124.078 53.4395C123.577 53.4395 122.532 53.474 120.943 53.5431V52.9991C121.669 52.9991 122.178 52.8696 122.472 52.6105C122.765 52.3342 122.912 51.842 122.912 51.1339V43.0256C122.912 42.2312 122.765 41.6526 122.472 41.2899C122.178 40.9273 121.669 40.7459 120.943 40.7459V40.2019C121.496 40.2537 122.031 40.2796 122.55 40.2796C123.638 40.2796 124.536 40.1588 125.244 39.917V51.1339ZM139.776 50.4345C139.465 51.3843 138.878 52.2047 138.014 52.8955C137.168 53.569 136.14 53.9058 134.931 53.9058C133.705 53.9058 132.643 53.6294 131.745 53.0768C130.847 52.5069 130.156 51.7211 129.673 50.7194C129.206 49.7005 128.973 48.5261 128.973 47.1963C128.973 45.6938 129.215 44.3899 129.699 43.2846C130.182 42.1794 130.864 41.3331 131.745 40.7459C132.626 40.1415 133.653 39.8393 134.828 39.8393C136.382 39.8393 137.574 40.3142 138.403 41.264C139.249 42.1966 139.672 43.6214 139.672 45.5384H131.564C131.512 46.022 131.486 46.5746 131.486 47.1963C131.486 48.3362 131.667 49.3292 132.03 50.1754C132.41 51.0217 132.902 51.6779 133.507 52.1442C134.128 52.5932 134.776 52.8177 135.45 52.8177C136.279 52.8177 137.012 52.6191 137.651 52.2219C138.29 51.8247 138.826 51.1598 139.258 50.2272L139.776 50.4345ZM134.724 40.3315C133.912 40.3315 133.213 40.7287 132.626 41.5231C132.039 42.3175 131.676 43.4919 131.538 45.0462H137.185C137.22 43.6991 137.021 42.5766 136.589 41.6785C136.175 40.7805 135.553 40.3315 134.724 40.3315ZM150.341 39.8393C151.55 39.8393 152.466 40.1674 153.087 40.8237C153.415 41.1691 153.649 41.6008 153.787 42.1189C153.925 42.637 153.994 43.3365 153.994 44.2172V51.1339C153.994 51.842 154.141 52.3342 154.434 52.6105C154.728 52.8696 155.237 52.9991 155.963 52.9991V53.5431C154.374 53.474 153.338 53.4395 152.854 53.4395C152.371 53.4395 151.403 53.474 149.953 53.5431V52.9991C150.592 52.9991 151.032 52.8696 151.274 52.6105C151.533 52.3342 151.663 51.842 151.663 51.1339V43.6473C151.663 42.6802 151.524 41.9462 151.248 41.4454C150.972 40.9273 150.41 40.6682 149.564 40.6682C148.856 40.6682 148.226 40.8755 147.673 41.2899C147.12 41.7044 146.689 42.2743 146.378 42.9997C146.084 43.7078 145.937 44.5022 145.937 45.383V51.1339C145.937 51.842 146.058 52.3342 146.3 52.6105C146.559 52.8696 147.008 52.9991 147.647 52.9991V53.5431C146.197 53.474 145.229 53.4395 144.746 53.4395C144.262 53.4395 143.226 53.474 141.637 53.5431V52.9991C142.363 52.9991 142.872 52.8696 143.166 52.6105C143.459 52.3342 143.606 51.842 143.606 51.1339V43.0256C143.606 42.2312 143.459 41.6526 143.166 41.2899C142.872 40.9273 142.363 40.7459 141.637 40.7459V40.2019C142.19 40.2537 142.725 40.2796 143.243 40.2796C144.331 40.2796 145.229 40.1588 145.937 39.917V42.9738C146.369 41.8685 146.965 41.0741 147.725 40.5905C148.502 40.0897 149.374 39.8393 150.341 39.8393ZM161.265 40.2278H165.099V40.7459H161.265V50.7712C161.265 51.5484 161.403 52.1097 161.68 52.4551C161.973 52.8005 162.388 52.9732 162.923 52.9732C163.458 52.9732 163.916 52.7573 164.296 52.3255C164.676 51.8938 164.995 51.1857 165.254 50.2013L165.773 50.3308C165.341 52.7141 164.218 53.9058 162.405 53.9058C161.818 53.9058 161.334 53.8367 160.954 53.6985C160.574 53.5604 160.237 53.3445 159.944 53.0509C159.564 52.6709 159.296 52.2047 159.141 51.652C159.003 51.0994 158.934 50.3568 158.934 49.4242V40.7459H156.447V40.2278H158.934V36.2643C159.901 36.2298 160.678 36.1089 161.265 35.9017V40.2278Z" fill="#2E3092"/>
<line x1="540.619" y1="297.106" x2="540.619" y2="224.571" stroke="#2E3092" stroke-width="2.59052" stroke-linecap="round" stroke-linejoin="round" stroke-dasharray="12.95 12.95"/>
<line x1="448.437" y1="200.403" x2="448.438" y2="161.545" stroke="#2E3092" stroke-width="2.59052" stroke-linecap="round" stroke-linejoin="round" stroke-dasharray="12.95 12.95"/>
<line x1="254.42" y1="200.403" x2="254.42" y2="127.868" stroke="#2E3092" stroke-width="2.59052" stroke-linecap="round" stroke-linejoin="round" stroke-dasharray="12.95 12.95"/>
<line x1="135.524" y1="350.373" x2="135.524" y2="241.571" stroke="#2E3092" stroke-width="2.59052" stroke-linecap="round" stroke-linejoin="round" stroke-dasharray="12.95 12.95"/>
<line x1="368.519" y1="376.373" x2="368.519" y2="267.571" stroke="#2E3092" stroke-width="2.59052" stroke-linecap="round" stroke-linejoin="round" stroke-dasharray="12.95 12.95"/>
<line x1="107.295" y1="200.403" x2="107.295" y2="70.8771" stroke="#2E3092" stroke-width="2.59052" stroke-linecap="round" stroke-linejoin="round" stroke-dasharray="12.95 12.95"/>
</svg>
